            <svg version="1.1" id="Capa_1" xmlns="http://www.w3.org/2000/svg" xmlns:xlink="http://www.w3.org/1999/xlink"
                x="0px" y="0px" viewBox="0 0 1920 800" style="enable-background:new 0 0 1920 80;" xml:space="preserve">
                <style type="text/css">
                    .st0 {
                        fill: #FFFFFF;
                        stroke: #1D1D1B;
                        stroke-miterlimit: 10;
                    }
                    #line1 {
                        stroke: #0066ff;
                        stroke-dasharray: 100;
                        stroke-dashoffset: 1000;
                        animation: dash 3s linear;
                        stroke-miterlimit: 10;
                        animation-iteration-count: infinite;
                      }
                      #line2 {
                        stroke: #00bfff;
                        stroke-dasharray: 200;
                        stroke-dashoffset: 800;
                        stroke-width: 2px;
                        animation: dash 6s linear;
                        stroke-miterlimit: 10;
                        animation-iteration-count: infinite;
                      }
                </style>
                <path class="st0" d="M69.59,0C0.5,72.5,0.5,72.5,0.5,72.5" />
                <line id="line1" class="st0" x1="216.76" y1="0" x2="0" y2="215" />
                <line id="line2" class="st0" x1="360.76" y1="0" x2="0" y2="360.06" />
                <line id="line1" class="st0" x1="503.59" y1="0" x2="0" y2="503.82" />
                <line id="line2" class="st0" x1="648.06" y1="0" x2="0" y2="646.88" />
                <line id="line1" class="st0" x1="792.06" y1="0" x2="0" y2="790.65" />
                <line id="line2" class="st0" x1="935.35" y1="0" x2="0" y2="935.35" />
                <line id="line1" class="st0" x1="1078.65" y1="0" x2="0.5" y2="1080" />
                <line id="line2" class="st0" x1="1222.65" y1="0" x2="142.65" y2="1080" />
                <line id="line1" class="st0" x1="1368.76" y1="0" x2="286.65" y2="1080" />
                <line id="line2" class="st0" x1="1512.76" y1="0" x2="432.53" y2="1080" />
                <line id="line1" class="st0" x1="1656.76" y1="0" x2="574.65" y2="1080" />
                <line id="line2" class="st0" x1="1798.65" y1="0" x2="720.76" y2="1080" />
                <line id="line1" class="st0" x1="1920.5" y1="24.5" x2="860.53" y2="1080" />
                <line id="line2" class="st0" x1="1920.5" y1="166.5" x2="1008.76" y2="1080" />
                <line id="line1" class="st0" x1="1920.5" y1="312.5" x2="1152.76" y2="1080" />
                <line id="line2" class="st0" x1="1920.5" y1="455.5" x2="1297.47" y2="1080" />
                <line id="line1" class="st0" x1="1920.5" y1="598.5" x2="1440.06" y2="1080" />
                <line id="line2" class="st0" x1="1920.5" y1="745.5" x2="1582.65" y2="1080" />
                <line id="line1" class="st0" x1="1920.5" y1="886.5" x2="1728.06" y2="1080" />
                <line id="line2" class="st0" x1="1920.5" y1="1030.5" x2="1867.82" y2="1080" />
            </svg>